<svg xmlns="http://www.w3.org/2000/svg" width="2480" height="2480" viewBox="0 0 2480 2480" version="1.1"><path d="M 1365.051 960.080 C 1319.610 965.191, 1280.399 983.864, 1251.500 1014.154 C 1235.682 1030.733, 1225.502 1048.204, 1220.286 1067.723 C 1217.705 1077.381, 1217.664 1078.079, 1216.942 1125 C 1216.540 1151.125, 1216.163 1182.737, 1216.105 1195.250 L 1216 1218 1185.475 1218 C 1157.774 1218, 1154.437 1218.180, 1149.402 1219.950 C 1141.998 1222.552, 1136.799 1227.258, 1133.523 1234.323 C 1131.044 1239.667, 1130.850 1240.983, 1131.161 1250.323 C 1131.554 1262.121, 1133.594 1267.306, 1140.004 1272.800 C 1147.750 1279.440, 1151.285 1280, 1185.421 1280 L 1215.892 1280 1216.196 1310.250 C 1216.465 1337.039, 1216.704 1340.874, 1218.286 1343.769 C 1220.842 1348.449, 1226.640 1353.563, 1233 1356.747 C 1238.046 1359.273, 1239.450 1359.500, 1250 1359.500 C 1260.323 1359.500, 1262.063 1359.233, 1267 1356.891 C 1273.044 1354.023, 1279.034 1348.667, 1281.748 1343.703 C 1283.286 1340.891, 1283.537 1336.818, 1283.804 1310.312 L 1284.107 1280.123 1316.804 1279.812 C 1346.590 1279.528, 1349.811 1279.332, 1353 1277.613 C 1359.170 1274.287, 1363.794 1270.063, 1366.431 1265.345 C 1368.797 1261.111, 1369 1259.788, 1369 1248.570 C 1369 1236.926, 1368.876 1236.197, 1366.178 1231.946 C 1363.267 1227.361, 1359.091 1223.702, 1353 1220.398 C 1349.803 1218.664, 1346.668 1218.473, 1316.750 1218.188 L 1284 1217.876 1284 1154.526 C 1284 1081.807, 1284.033 1081.419, 1291.642 1066.007 C 1295.677 1057.833, 1297.730 1055.112, 1306.414 1046.429 C 1311.961 1040.882, 1319.832 1034.161, 1323.905 1031.492 C 1348.359 1015.469, 1382.684 1009.429, 1414.735 1015.509 C 1435.824 1019.510, 1454.925 1029.335, 1470.648 1044.271 C 1484.445 1057.376, 1492.122 1072.518, 1493.998 1090.321 C 1494.564 1095.687, 1494.973 1149.325, 1494.983 1219.434 C 1495 1338.620, 1495.013 1339.395, 1497.068 1343.640 C 1499.528 1348.722, 1504.164 1352.997, 1511.287 1356.752 C 1516.098 1359.288, 1517.388 1359.500, 1528 1359.500 C 1538.291 1359.500, 1540.078 1359.228, 1545 1356.910 C 1552.646 1353.309, 1556.890 1349.432, 1559.633 1343.541 L 1561.980 1338.500 1562.010 1216.500 C 1562.028 1140.850, 1562.418 1091.879, 1563.037 1087.602 C 1565.260 1072.220, 1571.174 1060.345, 1582.799 1047.919 C 1598.878 1030.732, 1618.302 1020.171, 1642.725 1015.337 C 1653.645 1013.176, 1679.183 1012.927, 1690 1014.877 C 1714.238 1019.246, 1733.633 1029.355, 1750.500 1046.410 C 1760.568 1056.590, 1765.750 1064.681, 1769.776 1076.500 L 1772.500 1084.500 1773 1212.500 C 1773.459 1330.007, 1773.638 1340.752, 1775.183 1343.571 C 1777.781 1348.311, 1783.938 1353.805, 1790 1356.791 C 1794.970 1359.239, 1796.560 1359.500, 1806.500 1359.500 C 1815.765 1359.500, 1818.262 1359.149, 1822.330 1357.271 C 1829.667 1353.885, 1834.571 1349.501, 1837.421 1343.782 L 1840 1338.607 1840 1212.435 C 1840 1073.815, 1840.179 1078.310, 1833.895 1059.504 C 1820.140 1018.341, 1777.798 981.777, 1726.834 967.051 C 1705.867 960.992, 1695.141 959.655, 1667.500 959.655 C 1646.086 959.655, 1640.786 959.969, 1630.555 961.844 C 1592.677 968.784, 1561.828 983.747, 1536.083 1007.664 L 1528.227 1014.963 1521.532 1008.495 C 1496.219 984.039, 1463.235 968.140, 1423.986 961.474 C 1412.591 959.539, 1377.287 958.704, 1365.051 960.080 M 1333 1470 L 1333 1503 1336.485 1503 L 1339.969 1503 1340.235 1474.383 L 1340.500 1445.766 1352.970 1473.930 L 1365.440 1502.094 1368.895 1501.797 L 1372.350 1501.500 1381.927 1480 C 1387.195 1468.175, 1392.700 1455.800, 1394.161 1452.500 L 1396.816 1446.500 1396.908 1474.750 L 1397 1503 1401 1503 L 1405 1503 1405 1469.950 L 1405 1436.900 1399.377 1437.200 L 1393.754 1437.500 1381.793 1464.500 C 1375.215 1479.350, 1369.517 1491.831, 1369.132 1492.235 C 1368.746 1492.639, 1362.842 1480.377, 1356.011 1464.985 L 1343.592 1437 1338.296 1437 L 1333 1437 1333 1470 M 1514 1470 L 1514 1503 1518 1503 L 1522 1503 1522 1486.950 C 1522 1469.668, 1522.737 1466.436, 1527.165 1464.305 C 1531.545 1462.197, 1533.214 1461.980, 1537.070 1463.019 C 1543.573 1464.770, 1544 1466.170, 1544 1485.723 L 1544 1503 1548 1503 L 1552 1503 1551.944 1485.750 C 1551.909 1475.137, 1551.428 1467.167, 1550.694 1465.035 C 1548.878 1459.762, 1544.027 1456.999, 1536.602 1457.007 C 1530.119 1457.014, 1526.228 1458.764, 1522.805 1463.213 C 1521.099 1465.429, 1521.044 1465.055, 1521.022 1451.250 L 1521 1437 1517.500 1437 L 1514 1437 1514 1470 M 1792 1440 C 1792 1442.762, 1792.278 1443, 1795.500 1443 C 1798.722 1443, 1799 1442.762, 1799 1440 C 1799 1437.238, 1798.722 1437, 1795.500 1437 C 1792.278 1437, 1792 1437.238, 1792 1440 M 1478 1452 L 1478 1458 1473 1458 C 1468.333 1458, 1468 1458.167, 1468 1460.500 C 1468 1462.788, 1468.373 1463, 1472.401 1463 L 1476.802 1463 1477.151 1480.428 C 1477.468 1496.266, 1477.692 1498.113, 1479.602 1500.678 C 1481.394 1503.085, 1482.510 1503.543, 1487.183 1503.795 C 1494.451 1504.186, 1502.653 1501.255, 1502.155 1498.445 C 1501.665 1495.681, 1501.409 1495.588, 1498.090 1496.963 C 1496.454 1497.640, 1493.463 1498.242, 1491.442 1498.299 C 1485.498 1498.467, 1485 1496.961, 1485 1478.809 L 1485 1463 1493 1463 C 1500.867 1463, 1501 1462.958, 1501 1460.500 C 1501 1458.042, 1500.867 1458, 1493 1458 L 1485 1458 1485 1452 L 1485 1446 1481.500 1446 L 1478 1446 1478 1452 M 1756 1452 L 1756 1458 1751 1458 C 1746.333 1458, 1746 1458.167, 1746 1460.500 C 1746 1462.788, 1746.373 1463, 1750.401 1463 L 1754.802 1463 1755.151 1480.428 C 1755.468 1496.266, 1755.692 1498.113, 1757.602 1500.678 C 1759.394 1503.085, 1760.510 1503.543, 1765.183 1503.795 C 1772.451 1504.186, 1780.653 1501.255, 1780.155 1498.445 C 1779.665 1495.681, 1779.409 1495.588, 1776.090 1496.963 C 1774.454 1497.640, 1771.463 1498.242, 1769.442 1498.299 C 1763.498 1498.467, 1763 1496.961, 1763 1478.809 L 1763 1463 1771 1463 C 1778.867 1463, 1779 1462.958, 1779 1460.500 C 1779 1458.042, 1778.867 1458, 1771 1458 L 1763 1458 1763 1452 L 1763 1446 1759.500 1446 L 1756 1446 1756 1452 M 1432 1457.597 C 1424.954 1460.127, 1423 1461.429, 1423 1463.593 C 1423 1466.734, 1424.234 1467.229, 1427.725 1465.487 C 1433.117 1462.798, 1440.734 1461.862, 1444.484 1463.429 C 1448.419 1465.073, 1449.806 1467.302, 1450.629 1473.309 L 1451.231 1477.698 1443.043 1478.260 C 1424.091 1479.559, 1414.597 1490.934, 1424.033 1501.036 C 1426.564 1503.745, 1427.373 1504, 1433.433 1504 C 1440.150 1504, 1445.926 1502.282, 1449.213 1499.307 C 1450.886 1497.793, 1451 1497.859, 1451 1500.345 C 1451 1502.713, 1451.379 1503, 1454.500 1503 L 1458 1503 1458 1485.886 C 1458 1470.425, 1457.800 1468.421, 1455.932 1465.136 C 1452.502 1459.103, 1449.524 1457.537, 1441 1457.283 C 1436.875 1457.159, 1432.825 1457.301, 1432 1457.597 M 1574.783 1459.922 C 1571.985 1461.697, 1569.061 1464.741, 1567.338 1467.672 C 1564.893 1471.831, 1564.503 1473.539, 1564.523 1480 C 1564.550 1488.623, 1566.748 1493.923, 1572.206 1498.526 C 1576.874 1502.462, 1581.121 1504, 1587.319 1504 C 1597.094 1504, 1605 1499.946, 1605 1494.932 C 1605 1493.319, 1604.795 1492, 1604.544 1492 C 1604.294 1492, 1602.482 1493.090, 1600.519 1494.423 C 1593.092 1499.463, 1583.605 1499.624, 1577.490 1494.814 C 1574.315 1492.316, 1571.054 1485.729, 1571.022 1481.750 L 1571 1479 1588 1479 L 1605 1479 1605 1475.649 C 1605 1468.178, 1600.594 1461.078, 1594.282 1458.377 C 1592.512 1457.620, 1588.438 1457, 1585.228 1457 C 1580.495 1457, 1578.520 1457.553, 1574.783 1459.922 M 1630.532 1458.969 C 1628.900 1460.045, 1626.773 1461.955, 1625.805 1463.213 L 1624.044 1465.500 1624.022 1461.750 C 1624.001 1458.135, 1623.874 1458, 1620.500 1458 L 1617 1458 1617 1480.500 L 1617 1503 1621.046 1503 L 1625.091 1503 1624.894 1487.101 C 1624.719 1472.927, 1624.909 1470.839, 1626.650 1467.851 C 1629.192 1463.488, 1634.592 1461.544, 1640.071 1463.019 C 1646.573 1464.770, 1647 1466.170, 1647 1485.723 L 1647 1503 1651 1503 L 1655 1503 1655 1487.450 C 1655 1471.101, 1655.553 1468.524, 1659.911 1464.581 C 1662.832 1461.937, 1670.178 1461.996, 1673.788 1464.691 C 1677.269 1467.290, 1677.870 1470.767, 1677.942 1488.750 L 1678 1503 1681.576 1503 L 1685.153 1503 1684.826 1483.750 C 1684.466 1462.486, 1684.137 1461.242, 1678.130 1458.391 C 1675.725 1457.250, 1672.857 1456.903, 1668.247 1457.197 C 1662.199 1457.582, 1661.501 1457.881, 1658.073 1461.556 L 1654.392 1465.502 1652.444 1462.530 C 1649.746 1458.413, 1646.498 1457.031, 1639.500 1457.021 C 1635.212 1457.016, 1632.653 1457.571, 1630.532 1458.969 M 1710 1457.597 C 1702.954 1460.127, 1701 1461.429, 1701 1463.593 C 1701 1466.734, 1702.234 1467.229, 1705.725 1465.487 C 1711.117 1462.798, 1718.734 1461.862, 1722.484 1463.429 C 1726.419 1465.073, 1727.806 1467.302, 1728.629 1473.309 L 1729.231 1477.698 1721.043 1478.260 C 1702.091 1479.559, 1692.597 1490.934, 1702.033 1501.036 C 1704.564 1503.745, 1705.373 1504, 1711.433 1504 C 1718.150 1504, 1723.926 1502.282, 1727.213 1499.307 C 1728.886 1497.793, 1729 1497.859, 1729 1500.345 C 1729 1502.713, 1729.379 1503, 1732.500 1503 L 1736 1503 1736 1485.886 C 1736 1470.425, 1735.800 1468.421, 1733.932 1465.136 C 1730.502 1459.103, 1727.524 1457.537, 1719 1457.283 C 1714.875 1457.159, 1710.825 1457.301, 1710 1457.597 M 1823.907 1459.326 C 1807.467 1468.003, 1807.467 1492.997, 1823.907 1501.674 C 1830.055 1504.919, 1839.558 1504.885, 1846.627 1501.593 C 1852.594 1498.815, 1853.419 1497.804, 1852.547 1494.331 C 1851.955 1491.974, 1851.771 1491.898, 1850.166 1493.350 C 1844.772 1498.231, 1832.831 1499.814, 1826.937 1496.428 C 1816.537 1490.455, 1816.544 1470.541, 1826.949 1464.565 C 1831.391 1462.013, 1840.290 1462.150, 1846.425 1464.864 C 1850.244 1466.553, 1850.933 1466.617, 1851.427 1465.330 C 1852.635 1462.180, 1851.859 1460.838, 1847.750 1458.973 C 1841.391 1456.087, 1829.717 1456.260, 1823.907 1459.326 M 1865.886 1458.939 C 1861.368 1461.401, 1858.565 1466.870, 1859.438 1471.521 C 1860.354 1476.405, 1865.623 1480.575, 1872.687 1482.007 C 1885.778 1484.662, 1889.873 1487.387, 1888.569 1492.580 C 1887.166 1498.169, 1876.660 1500.093, 1867 1496.530 C 1860.151 1494.004, 1859.500 1494.088, 1859.500 1497.500 C 1859.500 1500.206, 1859.990 1500.667, 1864.500 1502.206 C 1871.729 1504.673, 1884.524 1504.587, 1888.696 1502.044 C 1898.049 1496.341, 1897.907 1484.688, 1888.417 1479.300 C 1886.286 1478.090, 1881.421 1476.542, 1877.606 1475.860 C 1869.120 1474.344, 1865.375 1471.627, 1866.360 1467.700 C 1866.725 1466.247, 1868.031 1464.515, 1869.262 1463.851 C 1872.357 1462.183, 1882.599 1462.497, 1887.906 1464.422 C 1890.329 1465.302, 1892.403 1465.904, 1892.515 1465.761 C 1892.627 1465.617, 1892.998 1464.331, 1893.340 1462.902 C 1894.234 1459.167, 1890.588 1457.748, 1879 1457.320 C 1871.005 1457.025, 1868.927 1457.282, 1865.886 1458.939 M 1792 1480.500 L 1792 1503 1795.500 1503 L 1799 1503 1799 1480.500 L 1799 1458 1795.500 1458 L 1792 1458 1792 1480.500 M 1581.741 1463.453 C 1579.673 1464.178, 1577.281 1465.352, 1576.425 1466.063 C 1574.703 1467.491, 1572 1472.310, 1572 1473.950 C 1572 1474.631, 1576.741 1475, 1585.500 1475 C 1594.643 1475, 1599 1474.645, 1599 1473.901 C 1599 1473.297, 1598.264 1471.252, 1597.365 1469.357 C 1594.745 1463.835, 1587.963 1461.272, 1581.741 1463.453 M 1444 1482.014 C 1433.798 1483.409, 1428 1487.082, 1428 1492.151 C 1428 1495.955, 1431.679 1498.231, 1437.827 1498.231 C 1444.091 1498.231, 1448.484 1495.919, 1449.892 1491.881 C 1451.145 1488.285, 1451.390 1480.932, 1450.250 1481.131 C 1449.838 1481.203, 1447.025 1481.601, 1444 1482.014 M 1722 1482.014 C 1711.798 1483.409, 1706 1487.082, 1706 1492.151 C 1706 1495.955, 1709.679 1498.231, 1715.827 1498.231 C 1722.091 1498.231, 1726.484 1495.919, 1727.892 1491.881 C 1729.145 1488.285, 1729.390 1480.932, 1728.250 1481.131 C 1727.838 1481.203, 1725.025 1481.601, 1722 1482.014" stroke="none" fill="#c49414" fill-rule="evenodd"/><path d="M 322 959.025 C 272.657 963.634, 233.434 976.082, 201.995 997.111 C 169.359 1018.941, 154.412 1047.037, 156.332 1082.941 C 158.295 1119.638, 174.798 1145.298, 206.789 1161.396 C 231.377 1173.769, 269.231 1180.230, 345 1184.986 C 414.191 1189.329, 439.372 1193.369, 458.153 1203.140 C 473.717 1211.238, 481.998 1223.130, 482.807 1238.546 C 483.899 1259.354, 473.321 1273.774, 447.416 1286.793 C 432.009 1294.536, 413.205 1300.071, 390 1303.695 C 373.595 1306.257, 324.720 1306.251, 307.647 1303.684 C 282.603 1299.919, 257.327 1291.951, 241.962 1282.978 C 233.318 1277.929, 222.762 1268.204, 219.285 1262.083 C 213.021 1251.061, 203.271 1245.038, 190.348 1244.209 C 171.474 1242.997, 155 1255.364, 155 1270.743 C 155 1279.931, 163.902 1294.011, 178.441 1307.816 C 203.656 1331.760, 246.534 1349.029, 299.500 1356.572 C 314.489 1358.707, 363.522 1359.615, 381.107 1358.083 C 419.978 1354.698, 450.661 1346.967, 478.793 1333.471 C 530.235 1308.791, 553.499 1274.725, 549.015 1230.643 C 545.633 1197.403, 532.180 1175.636, 505.251 1159.834 C 479.233 1144.568, 440.681 1137.383, 358.500 1132.485 C 311.977 1129.713, 282.099 1126.307, 266 1121.942 C 261.875 1120.824, 254.415 1117.932, 249.423 1115.516 C 233.697 1107.906, 225.354 1097.477, 222.903 1082.366 C 218.954 1058.027, 234.693 1038.701, 269.610 1025.014 C 301.644 1012.456, 343.681 1008.379, 387 1013.627 C 419.265 1017.536, 447.016 1027.136, 464.500 1040.435 C 476.745 1049.749, 478.796 1050.500, 492 1050.500 C 502.191 1050.500, 504.012 1050.229, 508 1048.117 C 519.636 1041.955, 524.360 1034.956, 525.405 1022.329 L 525.999 1015.159 516.750 1007.396 C 511.662 1003.126, 503.798 997.219, 499.273 994.268 C 474.057 977.826, 435.902 965.389, 395.500 960.443 C 380.254 958.577, 335.952 957.722, 322 959.025 M 680.500 960.337 C 671.736 963.216, 665.297 968.202, 661.621 974.956 L 659 979.771 659.004 1087.135 C 659.008 1203.336, 658.985 1202.760, 664.500 1222.106 C 675.258 1259.847, 703.086 1294.542, 744 1321.223 C 772.824 1340.020, 803.404 1351.411, 841.500 1357.544 C 855.187 1359.747, 897.016 1360.633, 912.618 1359.050 C 955.335 1354.715, 992.437 1341.965, 1025.211 1320.359 C 1063.674 1295.003, 1090.679 1262.088, 1101.809 1227 C 1108.845 1204.819, 1108.365 1214.176, 1108.737 1092 C 1109.114 968.318, 1109.590 976.825, 1101.853 969.088 C 1099.639 966.874, 1095.279 963.811, 1092.164 962.281 C 1087.012 959.751, 1085.506 959.500, 1075.500 959.500 C 1066.303 959.500, 1063.726 959.858, 1059.775 961.683 C 1052.900 964.858, 1047.598 969.486, 1044.671 974.863 L 1042.101 979.586 1041.718 1086.543 C 1041.305 1201.936, 1041.492 1197.796, 1035.967 1214 C 1023.450 1250.711, 986.537 1283.202, 940.644 1297.903 C 912.219 1307.008, 873.371 1308.553, 842 1301.826 C 809.191 1294.790, 781.021 1279.213, 757.970 1255.361 C 742.823 1239.686, 734.470 1225.401, 729.179 1206.119 L 726.539 1196.500 726.020 1088 C 725.433 965.464, 726.205 976.131, 717.331 967.951 C 710.471 961.627, 705.163 959.664, 694 959.318 C 688.066 959.134, 682.999 959.516, 680.500 960.337 M 2098 960.025 C 2048.657 964.634, 2009.434 977.082, 1977.995 998.111 C 1945.359 1019.941, 1930.412 1048.037, 1932.332 1083.941 C 1934.295 1120.638, 1950.798 1146.298, 1982.789 1162.396 C 2007.377 1174.769, 2045.231 1181.230, 2121 1185.986 C 2190.191 1190.329, 2215.372 1194.369, 2234.153 1204.140 C 2249.717 1212.238, 2257.998 1224.130, 2258.807 1239.546 C 2259.899 1260.354, 2249.321 1274.774, 2223.416 1287.793 C 2208.009 1295.536, 2189.205 1301.071, 2166 1304.695 C 2149.595 1307.257, 2100.720 1307.251, 2083.647 1304.684 C 2058.603 1300.919, 2033.327 1292.951, 2017.962 1283.978 C 2009.318 1278.929, 1998.762 1269.204, 1995.285 1263.083 C 1989.021 1252.061, 1979.271 1246.038, 1966.348 1245.209 C 1947.474 1243.997, 1931 1256.364, 1931 1271.743 C 1931 1280.931, 1939.902 1295.011, 1954.441 1308.816 C 1979.656 1332.760, 2022.534 1350.029, 2075.500 1357.572 C 2090.489 1359.707, 2139.522 1360.615, 2157.107 1359.083 C 2195.978 1355.698, 2226.661 1347.967, 2254.793 1334.471 C 2306.235 1309.791, 2329.499 1275.725, 2325.015 1231.643 C 2321.633 1198.403, 2308.180 1176.636, 2281.251 1160.834 C 2255.233 1145.568, 2216.681 1138.383, 2134.500 1133.485 C 2087.977 1130.713, 2058.099 1127.307, 2042 1122.942 C 2037.875 1121.824, 2030.415 1118.932, 2025.423 1116.516 C 2009.697 1108.906, 2001.354 1098.477, 1998.903 1083.366 C 1994.954 1059.027, 2010.693 1039.701, 2045.610 1026.014 C 2077.644 1013.456, 2119.681 1009.379, 2163 1014.627 C 2195.265 1018.536, 2223.016 1028.136, 2240.500 1041.435 C 2252.745 1050.749, 2254.796 1051.500, 2268 1051.500 C 2278.191 1051.500, 2280.012 1051.229, 2284 1049.117 C 2295.636 1042.955, 2300.360 1035.956, 2301.405 1023.329 L 2301.999 1016.159 2292.750 1008.396 C 2287.662 1004.126, 2279.798 998.219, 2275.273 995.268 C 2250.057 978.826, 2211.902 966.389, 2171.500 961.443 C 2156.254 959.577, 2111.952 958.722, 2098 960.025 M 174 1437.084 C 165.874 1440.768, 162 1445.907, 162 1453 C 162 1459.618, 165.613 1464.802, 172.733 1468.400 C 174.511 1469.298, 180.586 1471.125, 186.233 1472.458 C 195.243 1474.587, 196.898 1475.318, 199.750 1478.427 C 203.408 1482.416, 204.034 1487.099, 201.551 1491.901 C 197.120 1500.471, 182.296 1501.889, 168.502 1495.063 C 165.204 1493.431, 162.205 1492.411, 161.838 1492.798 C 161.472 1493.184, 161.021 1494.850, 160.836 1496.500 C 160.509 1499.423, 160.706 1499.571, 168.500 1502.265 C 175.425 1504.659, 177.788 1504.995, 186.083 1504.765 C 194.766 1504.525, 196.125 1504.216, 200.564 1501.469 C 211.881 1494.466, 214.057 1482.829, 205.806 1473.432 C 201.735 1468.795, 198.820 1467.384, 188.275 1464.945 C 176.702 1462.268, 174.431 1461.301, 171.480 1457.794 C 161.680 1446.147, 182.331 1435.511, 199.491 1443.367 C 202.689 1444.831, 205.447 1445.886, 205.622 1445.712 C 205.796 1445.537, 206.065 1443.871, 206.219 1442.009 C 206.492 1438.717, 206.347 1438.574, 201 1436.873 C 193.034 1434.337, 179.830 1434.441, 174 1437.084 M 1951 1437.084 C 1942.874 1440.768, 1939 1445.907, 1939 1453 C 1939 1459.618, 1942.613 1464.802, 1949.733 1468.400 C 1951.511 1469.298, 1957.586 1471.125, 1963.233 1472.458 C 1972.243 1474.587, 1973.898 1475.318, 1976.750 1478.427 C 1980.408 1482.416, 1981.034 1487.099, 1978.551 1491.901 C 1974.120 1500.471, 1959.296 1501.889, 1945.502 1495.063 C 1942.204 1493.431, 1939.205 1492.411, 1938.838 1492.798 C 1938.472 1493.184, 1938.021 1494.850, 1937.836 1496.500 C 1937.509 1499.423, 1937.706 1499.571, 1945.500 1502.265 C 1952.425 1504.659, 1954.788 1504.995, 1963.083 1504.765 C 1971.766 1504.525, 1973.125 1504.216, 1977.564 1501.469 C 1988.881 1494.466, 1991.057 1482.829, 1982.806 1473.432 C 1978.735 1468.795, 1975.820 1467.384, 1965.275 1464.945 C 1953.702 1462.268, 1951.431 1461.301, 1948.480 1457.794 C 1938.680 1446.147, 1959.331 1435.511, 1976.491 1443.367 C 1979.689 1444.831, 1982.447 1445.886, 1982.622 1445.712 C 1982.796 1445.537, 1983.065 1443.871, 1983.219 1442.009 C 1983.492 1438.717, 1983.347 1438.574, 1978 1436.873 C 1970.034 1434.337, 1956.830 1434.441, 1951 1437.084 M 586.500 1437.412 C 580.365 1440.138, 577 1445.861, 577 1453.565 L 577 1458 572.500 1458 C 568.367 1458, 568 1458.204, 568 1460.500 C 568 1462.796, 568.367 1463, 572.500 1463 L 577 1463 577 1483 L 577 1503 581 1503 L 585 1503 585 1483 L 585 1463 591.500 1463 C 597.767 1463, 598 1462.910, 598 1460.500 C 598 1458.090, 597.767 1458, 591.500 1458 L 585 1458 585 1451.622 C 585 1447.228, 585.458 1444.865, 586.472 1444.024 C 588.855 1442.046, 595.040 1441.068, 599.682 1441.935 L 604 1442.742 604 1439.371 L 604 1436 596.750 1436.039 C 592.763 1436.061, 588.150 1436.678, 586.500 1437.412 M 328 1440 C 328 1442.762, 328.278 1443, 331.500 1443 C 334.722 1443, 335 1442.762, 335 1440 C 335 1437.238, 334.722 1437, 331.500 1437 C 328.278 1437, 328 1437.238, 328 1440 M 645 1461.532 C 645 1488.627, 645.352 1490.602, 651.301 1496.872 C 658.936 1504.921, 672.320 1507.398, 682.500 1502.647 C 688.567 1499.816, 694.491 1493.496, 695.928 1488.321 C 696.538 1486.124, 696.991 1474.407, 696.994 1460.750 L 697 1437 693 1437 L 689 1437 689 1462.040 C 689 1485.162, 688.846 1487.382, 686.987 1491.026 C 682.054 1500.694, 665.016 1502.317, 657.389 1493.845 C 653.507 1489.534, 653 1485.725, 653 1460.851 L 653 1437 649 1437 L 645 1437 645 1461.532 M 799 1449.568 L 799 1462.136 795.793 1459.852 C 791.327 1456.673, 781.857 1456.138, 777 1458.792 C 762.127 1466.917, 761.505 1492.011, 775.935 1501.735 C 781.580 1505.539, 791.594 1504.589, 796.750 1499.759 L 799 1497.651 799 1500.326 C 799 1502.779, 799.330 1503, 803 1503 L 807 1503 807 1470 L 807 1437 803 1437 L 799 1437 799 1449.568 M 1079 1449.568 L 1079 1462.136 1075.793 1459.852 C 1071.327 1456.673, 1061.857 1456.138, 1057 1458.792 C 1042.127 1466.917, 1041.505 1492.011, 1055.935 1501.735 C 1061.580 1505.539, 1071.594 1504.589, 1076.750 1499.759 L 1079 1497.651 1079 1500.326 C 1079 1502.779, 1079.330 1503, 1083 1503 L 1087 1503 1087 1470 L 1087 1437 1083 1437 L 1079 1437 1079 1449.568 M 2125 1449.568 L 2125 1462.136 2121.793 1459.852 C 2117.327 1456.673, 2107.857 1456.138, 2103 1458.792 C 2088.127 1466.917, 2087.505 1492.011, 2101.935 1501.735 C 2107.580 1505.539, 2117.594 1504.589, 2122.750 1499.759 L 2125 1497.651 2125 1500.326 C 2125 1502.779, 2125.330 1503, 2129 1503 L 2133 1503 2133 1470 L 2133 1437 2129 1437 L 2125 1437 2125 1449.568 M 405 1452 L 405 1458 400 1458 C 395.333 1458, 395 1458.167, 395 1460.500 C 395 1462.788, 395.373 1463, 399.401 1463 L 403.802 1463 404.151 1480.428 C 404.468 1496.266, 404.692 1498.113, 406.602 1500.678 C 408.394 1503.085, 409.510 1503.543, 414.183 1503.795 C 421.451 1504.186, 429.653 1501.255, 429.155 1498.445 C 428.665 1495.681, 428.409 1495.588, 425.090 1496.963 C 423.454 1497.640, 420.463 1498.242, 418.442 1498.299 C 412.498 1498.467, 412 1496.961, 412 1478.809 L 412 1463 420 1463 C 427.867 1463, 428 1462.958, 428 1460.500 C 428 1458.042, 427.867 1458, 420 1458 L 412 1458 412 1452 L 412 1446 408.500 1446 L 405 1446 405 1452 M 1212 1452 L 1212 1458 1207 1458 C 1202.333 1458, 1202 1458.167, 1202 1460.500 C 1202 1462.788, 1202.373 1463, 1206.401 1463 L 1210.802 1463 1211.151 1480.428 C 1211.468 1496.266, 1211.692 1498.113, 1213.602 1500.678 C 1215.394 1503.085, 1216.510 1503.543, 1221.183 1503.795 C 1228.451 1504.186, 1236.653 1501.255, 1236.155 1498.445 C 1235.665 1495.681, 1235.409 1495.588, 1232.090 1496.963 C 1230.454 1497.640, 1227.463 1498.242, 1225.442 1498.299 C 1219.498 1498.467, 1219 1496.961, 1219 1478.809 L 1219 1463 1227 1463 C 1234.867 1463, 1235 1462.958, 1235 1460.500 C 1235 1458.042, 1234.867 1458, 1227 1458 L 1219 1458 1219 1452 L 1219 1446 1215.500 1446 L 1212 1446 1212 1452 M 2005 1452 L 2005 1458 2000 1458 C 1995.333 1458, 1995 1458.167, 1995 1460.500 C 1995 1462.788, 1995.373 1463, 1999.401 1463 L 2003.802 1463 2004.151 1480.428 C 2004.468 1496.266, 2004.692 1498.113, 2006.602 1500.678 C 2008.394 1503.085, 2009.510 1503.543, 2014.183 1503.795 C 2021.451 1504.186, 2029.653 1501.255, 2029.155 1498.445 C 2028.665 1495.681, 2028.409 1495.588, 2025.090 1496.963 C 2023.454 1497.640, 2020.463 1498.242, 2018.442 1498.299 C 2012.498 1498.467, 2012 1496.961, 2012 1478.809 L 2012 1463 2020 1463 C 2027.867 1463, 2028 1462.958, 2028 1460.500 C 2028 1458.042, 2027.867 1458, 2020 1458 L 2012 1458 2012 1452 L 2012 1446 2008.500 1446 L 2005 1446 2005 1452 M 2255 1452 L 2255 1458 2250 1458 C 2245.333 1458, 2245 1458.167, 2245 1460.500 C 2245 1462.788, 2245.373 1463, 2249.401 1463 L 2253.802 1463 2254.151 1480.428 C 2254.468 1496.266, 2254.692 1498.113, 2256.602 1500.678 C 2258.394 1503.085, 2259.510 1503.543, 2264.183 1503.795 C 2271.451 1504.186, 2279.653 1501.255, 2279.155 1498.445 C 2278.665 1495.681, 2278.409 1495.588, 2275.090 1496.963 C 2273.454 1497.640, 2270.463 1498.242, 2268.442 1498.299 C 2262.498 1498.467, 2262 1496.961, 2262 1478.809 L 2262 1463 2270 1463 C 2277.867 1463, 2278 1462.958, 2278 1460.500 C 2278 1458.042, 2277.867 1458, 2270 1458 L 2262 1458 2262 1452 L 2262 1446 2258.500 1446 L 2255 1446 2255 1452 M 234.500 1458.847 C 225.925 1462.939, 220.985 1470.955, 221.022 1480.718 C 221.073 1494.261, 230.958 1504, 244.652 1504 C 255.285 1504, 263.546 1497.703, 266.599 1487.272 C 269.429 1477.602, 265.358 1466.292, 256.948 1460.464 C 251.391 1456.613, 240.783 1455.849, 234.500 1458.847 M 288.907 1459.326 C 272.467 1468.003, 272.467 1492.997, 288.907 1501.674 C 295.055 1504.919, 304.558 1504.885, 311.627 1501.593 C 317.594 1498.815, 318.419 1497.804, 317.547 1494.331 C 316.955 1491.974, 316.771 1491.898, 315.166 1493.350 C 309.772 1498.231, 297.831 1499.814, 291.937 1496.428 C 281.537 1490.455, 281.544 1470.541, 291.949 1464.565 C 296.391 1462.013, 305.290 1462.150, 311.425 1464.864 C 315.244 1466.553, 315.933 1466.617, 316.427 1465.330 C 317.635 1462.180, 316.859 1460.838, 312.750 1458.973 C 306.391 1456.087, 294.717 1456.260, 288.907 1459.326 M 358.783 1459.922 C 355.985 1461.697, 353.061 1464.741, 351.338 1467.672 C 348.893 1471.831, 348.503 1473.539, 348.523 1480 C 348.550 1488.623, 350.748 1493.923, 356.206 1498.526 C 360.874 1502.462, 365.121 1504, 371.319 1504 C 381.094 1504, 389 1499.946, 389 1494.932 C 389 1493.319, 388.795 1492, 388.544 1492 C 388.294 1492, 386.482 1493.090, 384.519 1494.423 C 377.092 1499.463, 367.605 1499.624, 361.490 1494.814 C 358.315 1492.316, 355.054 1485.729, 355.022 1481.750 L 355 1479 372 1479 L 389 1479 389 1475.649 C 389 1468.178, 384.594 1461.078, 378.282 1458.377 C 376.512 1457.620, 372.438 1457, 369.228 1457 C 364.495 1457, 362.520 1457.553, 358.783 1459.922 M 529.500 1458.847 C 520.925 1462.939, 515.985 1470.955, 516.022 1480.718 C 516.073 1494.261, 525.958 1504, 539.652 1504 C 550.285 1504, 558.546 1497.703, 561.599 1487.272 C 564.429 1477.602, 560.358 1466.292, 551.948 1460.464 C 546.391 1456.613, 535.783 1455.849, 529.500 1458.847 M 728.532 1458.969 C 726.900 1460.045, 724.773 1461.955, 723.805 1463.213 L 722.044 1465.500 722.022 1461.750 C 722.001 1458.135, 721.874 1458, 718.500 1458 L 715 1458 715 1480.500 L 715 1503 719 1503 L 723 1503 723 1486.950 C 723 1469.668, 723.737 1466.436, 728.165 1464.305 C 732.545 1462.197, 734.214 1461.980, 738.070 1463.019 C 744.573 1464.770, 745 1466.170, 745 1485.723 L 745 1503 749 1503 L 753 1503 752.924 1485.750 C 752.838 1466.263, 752.033 1462.651, 747.021 1459.250 C 742.587 1456.242, 732.893 1456.095, 728.532 1458.969 M 829.783 1459.922 C 826.985 1461.697, 824.061 1464.741, 822.338 1467.672 C 819.893 1471.831, 819.503 1473.539, 819.523 1480 C 819.550 1488.623, 821.748 1493.923, 827.206 1498.526 C 831.874 1502.462, 836.121 1504, 842.319 1504 C 852.094 1504, 860 1499.946, 860 1494.932 C 860 1493.319, 859.795 1492, 859.544 1492 C 859.294 1492, 857.482 1493.090, 855.519 1494.423 C 848.092 1499.463, 838.605 1499.624, 832.490 1494.814 C 829.315 1492.316, 826.054 1485.729, 826.022 1481.750 L 826 1479 843 1479 L 860 1479 860 1475.649 C 860 1468.178, 855.594 1461.078, 849.282 1458.377 C 847.512 1457.620, 843.438 1457, 840.228 1457 C 835.495 1457, 833.520 1457.553, 829.783 1459.922 M 887.459 1458.880 C 885.236 1459.889, 882.198 1462.164, 880.709 1463.934 L 878 1467.153 878 1462.577 C 878 1458.013, 877.990 1458, 874.500 1458 L 871 1458 871 1480.500 L 871 1503 874.500 1503 L 878 1503 878.006 1490.750 C 878.009 1484.013, 878.475 1476.831, 879.041 1474.791 C 880.835 1468.332, 885.661 1464.694, 895.250 1462.571 C 897.347 1462.106, 898 1461.373, 898 1459.481 C 898 1457.344, 897.549 1457.003, 894.750 1457.022 C 892.962 1457.034, 889.681 1457.870, 887.459 1458.880 M 916.500 1458.105 C 906.271 1464.029, 901.262 1475.689, 904.426 1486.213 C 906.240 1492.245, 908.129 1494.791, 913.495 1498.432 C 916.514 1500.481, 918.487 1501, 923.257 1501 C 928.868 1501, 929.474 1500.762, 933.118 1497.118 L 937 1493.235 936.985 1499.868 C 936.969 1507.330, 935.780 1510.359, 931.672 1513.404 C 928.047 1516.090, 919.466 1515.929, 911.842 1513.031 C 908.904 1511.915, 906.388 1511.001, 906.250 1511.001 C 906.112 1511, 906 1512.313, 906 1513.917 C 906 1516.474, 906.588 1517.061, 910.750 1518.667 C 914.103 1519.961, 918.171 1520.500, 924.578 1520.500 C 932.981 1520.500, 933.929 1520.292, 937.329 1517.698 C 944.270 1512.404, 944.462 1511.507, 944.825 1482.750 L 945.149 1457 941.075 1457 C 937.161 1457, 937 1457.126, 937 1460.187 L 937 1463.374 933.983 1460.483 C 931.431 1458.038, 930.004 1457.543, 924.733 1457.270 C 921.214 1457.088, 917.629 1457.451, 916.500 1458.105 M 977.459 1458.880 C 975.236 1459.889, 972.198 1462.164, 970.709 1463.934 L 968 1467.153 968 1462.577 C 968 1458.013, 967.990 1458, 964.500 1458 L 961 1458 961 1480.500 L 961 1503 964.500 1503 L 968 1503 968.006 1490.750 C 968.009 1484.013, 968.475 1476.831, 969.041 1474.791 C 970.835 1468.332, 975.661 1464.694, 985.250 1462.571 C 987.347 1462.106, 988 1461.373, 988 1459.481 C 988 1457.344, 987.549 1457.003, 984.750 1457.022 C 982.962 1457.034, 979.681 1457.870, 977.459 1458.880 M 1006 1457.597 C 998.954 1460.127, 997 1461.429, 997 1463.593 C 997 1466.734, 998.234 1467.229, 1001.725 1465.487 C 1007.117 1462.798, 1014.734 1461.862, 1018.484 1463.429 C 1022.419 1465.073, 1023.806 1467.302, 1024.629 1473.309 L 1025.231 1477.698 1017.043 1478.260 C 998.091 1479.559, 988.597 1490.934, 998.033 1501.036 C 1000.564 1503.745, 1001.373 1504, 1007.433 1504 C 1014.150 1504, 1019.926 1502.282, 1023.213 1499.307 C 1024.886 1497.793, 1025 1497.859, 1025 1500.345 C 1025 1502.713, 1025.379 1503, 1028.500 1503 L 1032 1503 1032 1485.886 C 1032 1470.425, 1031.800 1468.421, 1029.932 1465.136 C 1026.502 1459.103, 1023.524 1457.537, 1015 1457.283 C 1010.875 1457.159, 1006.825 1457.301, 1006 1457.597 M 1166 1457.597 C 1158.954 1460.127, 1157 1461.429, 1157 1463.593 C 1157 1466.734, 1158.234 1467.229, 1161.725 1465.487 C 1167.117 1462.798, 1174.734 1461.862, 1178.484 1463.429 C 1182.419 1465.073, 1183.806 1467.302, 1184.629 1473.309 L 1185.231 1477.698 1177.043 1478.260 C 1158.091 1479.559, 1148.597 1490.934, 1158.033 1501.036 C 1160.564 1503.745, 1161.373 1504, 1167.433 1504 C 1174.150 1504, 1179.926 1502.282, 1183.213 1499.307 C 1184.886 1497.793, 1185 1497.859, 1185 1500.345 C 1185 1502.713, 1185.379 1503, 1188.500 1503 L 1192 1503 1192 1485.886 C 1192 1470.425, 1191.800 1468.421, 1189.932 1465.136 C 1186.502 1459.103, 1183.524 1457.537, 1175 1457.283 C 1170.875 1457.159, 1166.825 1457.301, 1166 1457.597 M 1253.783 1459.922 C 1250.985 1461.697, 1248.061 1464.741, 1246.338 1467.672 C 1243.893 1471.831, 1243.503 1473.539, 1243.523 1480 C 1243.550 1488.623, 1245.748 1493.923, 1251.206 1498.526 C 1255.874 1502.462, 1260.121 1504, 1266.319 1504 C 1276.094 1504, 1284 1499.946, 1284 1494.932 C 1284 1493.319, 1283.795 1492, 1283.544 1492 C 1283.294 1492, 1281.482 1493.090, 1279.519 1494.423 C 1272.092 1499.463, 1262.605 1499.624, 1256.490 1494.814 C 1253.315 1492.316, 1250.054 1485.729, 1250.022 1481.750 L 1250 1479 1267 1479 L 1284 1479 1284 1475.649 C 1284 1468.178, 1279.594 1461.078, 1273.282 1458.377 C 1271.512 1457.620, 1267.438 1457, 1264.228 1457 C 1259.495 1457, 1257.520 1457.553, 1253.783 1459.922 M 2155.783 1459.922 C 2152.985 1461.697, 2150.061 1464.741, 2148.338 1467.672 C 2145.893 1471.831, 2145.503 1473.539, 2145.523 1480 C 2145.550 1488.623, 2147.748 1493.923, 2153.206 1498.526 C 2157.874 1502.462, 2162.121 1504, 2168.319 1504 C 2178.094 1504, 2186 1499.946, 2186 1494.932 C 2186 1493.319, 2185.795 1492, 2185.544 1492 C 2185.294 1492, 2183.482 1493.090, 2181.519 1494.423 C 2174.092 1499.463, 2164.605 1499.624, 2158.490 1494.814 C 2155.315 1492.316, 2152.054 1485.729, 2152.022 1481.750 L 2152 1479 2169 1479 L 2186 1479 2186 1475.649 C 2186 1468.178, 2181.594 1461.078, 2175.282 1458.377 C 2173.512 1457.620, 2169.438 1457, 2166.228 1457 C 2161.495 1457, 2159.520 1457.553, 2155.783 1459.922 M 2211.532 1458.969 C 2209.900 1460.045, 2207.773 1461.955, 2206.805 1463.213 L 2205.044 1465.500 2205.022 1461.750 C 2205.001 1458.135, 2204.874 1458, 2201.500 1458 L 2198 1458 2198 1480.500 L 2198 1503 2202 1503 L 2206 1503 2206 1486.950 C 2206 1469.668, 2206.737 1466.436, 2211.165 1464.305 C 2215.545 1462.197, 2217.214 1461.980, 2221.070 1463.019 C 2227.573 1464.770, 2228 1466.170, 2228 1485.723 L 2228 1503 2232 1503 L 2236 1503 2235.924 1485.750 C 2235.838 1466.263, 2235.033 1462.651, 2230.021 1459.250 C 2225.587 1456.242, 2215.893 1456.095, 2211.532 1458.969 M 2292.886 1458.939 C 2288.368 1461.401, 2285.565 1466.870, 2286.438 1471.521 C 2287.354 1476.405, 2292.623 1480.575, 2299.687 1482.007 C 2312.778 1484.662, 2316.873 1487.387, 2315.569 1492.580 C 2314.166 1498.169, 2303.660 1500.093, 2294 1496.530 C 2287.151 1494.004, 2286.500 1494.088, 2286.500 1497.500 C 2286.500 1500.206, 2286.990 1500.667, 2291.500 1502.206 C 2298.729 1504.673, 2311.524 1504.587, 2315.696 1502.044 C 2325.049 1496.341, 2324.907 1484.688, 2315.417 1479.300 C 2313.286 1478.090, 2308.421 1476.542, 2304.606 1475.860 C 2296.120 1474.344, 2292.375 1471.627, 2293.360 1467.700 C 2293.725 1466.247, 2295.031 1464.515, 2296.262 1463.851 C 2299.357 1462.183, 2309.599 1462.497, 2314.906 1464.422 C 2317.329 1465.302, 2319.403 1465.904, 2319.515 1465.761 C 2319.627 1465.617, 2319.998 1464.331, 2320.340 1462.902 C 2321.234 1459.167, 2317.588 1457.748, 2306 1457.320 C 2298.005 1457.025, 2295.927 1457.282, 2292.886 1458.939 M 328 1480.500 L 328 1503 331.500 1503 L 335 1503 335 1480.500 L 335 1458 331.500 1458 L 328 1458 328 1480.500 M 431.914 1462.250 C 432.927 1464.588, 437.443 1474.794, 441.948 1484.932 L 450.140 1503.363 448.432 1507.152 C 445.650 1513.321, 443.657 1514.538, 436.827 1514.239 L 430.865 1513.979 431.183 1516.739 C 431.490 1519.409, 431.718 1519.510, 438.122 1519.793 C 444.066 1520.056, 445.070 1519.812, 447.922 1517.413 C 449.669 1515.942, 452.146 1512.661, 453.427 1510.120 C 455.957 1505.100, 475 1459.545, 475 1458.512 C 475 1458.164, 473.388 1458.019, 471.417 1458.190 C 467.937 1458.491, 467.733 1458.744, 464.286 1467 C 462.335 1471.675, 459.065 1479.901, 457.019 1485.279 L 453.300 1495.058 451.242 1489.682 C 450.111 1486.725, 446.606 1478.387, 443.453 1471.153 L 437.721 1458 433.896 1458 L 430.071 1458 431.914 1462.250 M 1103 1476.532 C 1103 1501.687, 1104.050 1504, 1115.466 1504 C 1121.599 1504, 1127.226 1502.076, 1130.736 1498.778 L 1133 1496.651 1133 1499.826 C 1133 1502.862, 1133.173 1503, 1137 1503 L 1141 1503 1141 1480.500 L 1141 1458 1137 1458 L 1133 1458 1132.985 1473.750 C 1132.969 1490.657, 1132.468 1492.847, 1127.820 1496.296 C 1124.692 1498.619, 1115.003 1499.077, 1112.525 1497.020 C 1111.257 1495.968, 1111 1492.573, 1111 1476.878 L 1111 1458 1107 1458 L 1103 1458 1103 1476.532 M 2041 1476.532 C 2041 1501.687, 2042.050 1504, 2053.466 1504 C 2059.599 1504, 2065.226 1502.076, 2068.736 1498.778 L 2071 1496.651 2071 1499.826 C 2071 1502.862, 2071.173 1503, 2075 1503 L 2079 1503 2079 1480.500 L 2079 1458 2075 1458 L 2071 1458 2070.985 1473.750 C 2070.969 1490.657, 2070.468 1492.847, 2065.820 1496.296 C 2062.692 1498.619, 2053.003 1499.077, 2050.525 1497.020 C 2049.257 1495.968, 2049 1492.573, 2049 1476.878 L 2049 1458 2045 1458 L 2041 1458 2041 1476.532 M 240.275 1462.961 C 232.163 1464.913, 228.569 1470.141, 228.564 1480 C 228.557 1491.616, 234.033 1498.156, 243.891 1498.305 C 254.206 1498.460, 260.400 1490.851, 259.782 1478.782 C 259.534 1473.939, 258.860 1471.288, 257.365 1469.282 C 253.463 1464.048, 246.485 1461.467, 240.275 1462.961 M 365.741 1463.453 C 363.673 1464.178, 361.281 1465.352, 360.425 1466.063 C 358.703 1467.491, 356 1472.310, 356 1473.950 C 356 1474.631, 360.741 1475, 369.500 1475 C 378.643 1475, 383 1474.645, 383 1473.901 C 383 1473.297, 382.264 1471.252, 381.365 1469.357 C 378.745 1463.835, 371.963 1461.272, 365.741 1463.453 M 535.275 1462.961 C 527.163 1464.913, 523.569 1470.141, 523.564 1480 C 523.557 1491.616, 529.033 1498.156, 538.891 1498.305 C 549.206 1498.460, 555.400 1490.851, 554.782 1478.782 C 554.534 1473.939, 553.860 1471.288, 552.365 1469.282 C 548.463 1464.048, 541.485 1461.467, 535.275 1462.961 M 785.275 1462.996 C 775.501 1465.243, 770.654 1476.016, 773.999 1488.057 C 776.790 1498.104, 790.962 1501.950, 796.983 1494.294 C 798.870 1491.896, 799.032 1490.531, 798.779 1479.185 C 798.510 1467.162, 798.410 1466.648, 796 1464.954 C 792.790 1462.697, 789.325 1462.065, 785.275 1462.996 M 836.741 1463.453 C 834.673 1464.178, 832.281 1465.352, 831.425 1466.063 C 829.703 1467.491, 827 1472.310, 827 1473.950 C 827 1474.631, 831.741 1475, 840.500 1475 C 849.643 1475, 854 1474.645, 854 1473.901 C 854 1473.297, 853.264 1471.252, 852.365 1469.357 C 849.745 1463.835, 842.963 1461.272, 836.741 1463.453 M 922.684 1463.473 C 917.862 1465.162, 915.315 1467.466, 912.783 1472.426 C 907.529 1482.721, 914.854 1495.273, 926.116 1495.273 C 933.551 1495.273, 937 1489.213, 937 1476.150 C 937 1469.759, 936.719 1468.733, 934.250 1466.112 C 930.833 1462.484, 927.606 1461.748, 922.684 1463.473 M 1065.275 1462.996 C 1055.501 1465.243, 1050.654 1476.016, 1053.999 1488.057 C 1056.790 1498.104, 1070.962 1501.950, 1076.983 1494.294 C 1078.870 1491.896, 1079.032 1490.531, 1078.779 1479.185 C 1078.510 1467.162, 1078.410 1466.648, 1076 1464.954 C 1072.790 1462.697, 1069.325 1462.065, 1065.275 1462.996 M 1260.741 1463.453 C 1258.673 1464.178, 1256.281 1465.352, 1255.425 1466.063 C 1253.703 1467.491, 1251 1472.310, 1251 1473.950 C 1251 1474.631, 1255.741 1475, 1264.500 1475 C 1273.643 1475, 1278 1474.645, 1278 1473.901 C 1278 1473.297, 1277.264 1471.252, 1276.365 1469.357 C 1273.745 1463.835, 1266.963 1461.272, 1260.741 1463.453 M 2111.275 1462.996 C 2101.501 1465.243, 2096.654 1476.016, 2099.999 1488.057 C 2102.790 1498.104, 2116.962 1501.950, 2122.983 1494.294 C 2124.870 1491.896, 2125.032 1490.531, 2124.779 1479.185 C 2124.510 1467.162, 2124.410 1466.648, 2122 1464.954 C 2118.790 1462.697, 2115.325 1462.065, 2111.275 1462.996 M 2162.741 1463.453 C 2160.673 1464.178, 2158.281 1465.352, 2157.425 1466.063 C 2155.703 1467.491, 2153 1472.310, 2153 1473.950 C 2153 1474.631, 2157.741 1475, 2166.500 1475 C 2175.643 1475, 2180 1474.645, 2180 1473.901 C 2180 1473.297, 2179.264 1471.252, 2178.365 1469.357 C 2175.745 1463.835, 2168.963 1461.272, 2162.741 1463.453 M 1018 1482.014 C 1007.798 1483.409, 1002 1487.082, 1002 1492.151 C 1002 1495.955, 1005.679 1498.231, 1011.827 1498.231 C 1018.091 1498.231, 1022.484 1495.919, 1023.892 1491.881 C 1025.145 1488.285, 1025.390 1480.932, 1024.250 1481.131 C 1023.837 1481.203, 1021.025 1481.601, 1018 1482.014 M 1178 1482.014 C 1167.798 1483.409, 1162 1487.082, 1162 1492.151 C 1162 1495.955, 1165.679 1498.231, 1171.827 1498.231 C 1178.091 1498.231, 1182.484 1495.919, 1183.892 1491.881 C 1185.145 1488.285, 1185.390 1480.932, 1184.250 1481.131 C 1183.838 1481.203, 1181.025 1481.601, 1178 1482.014" stroke="none" fill="#046c94" fill-rule="evenodd"/></svg>