<?xml version="1.0" standalone="no"?>
<!DOCTYPE svg PUBLIC "-//W3C//DTD SVG 20010904//EN"
 "http://www.w3.org/TR/2001/REC-SVG-20010904/DTD/svg10.dtd">
<svg version="1.0" xmlns="http://www.w3.org/2000/svg"
 width="2875.000000pt" height="889.000000pt" viewBox="0 0 2875.000000 889.000000"
 preserveAspectRatio="xMidYMid meet">

<g transform="translate(0.000000,889.000000) scale(0.100000,-0.100000)"
fill="#000000" stroke="none">
<path d="M3440 7524 c-625 -37 -1149 -189 -1550 -452 -364 -239 -548 -531
-567 -902 -14 -267 51 -523 181 -718 53 -80 187 -212 273 -270 77 -52 216
-122 311 -156 288 -103 800 -175 1537 -216 903 -51 1267 -128 1471 -314 172
-156 212 -401 101 -609 -131 -247 -544 -445 -1091 -523 -174 -25 -652 -30
-846 -10 -388 41 -745 150 -970 296 -84 55 -188 160 -228 231 -40 70 -107 133
-175 164 -258 118 -577 -33 -577 -271 0 -54 6 -74 40 -140 229 -443 871 -780
1683 -884 702 -90 1460 -14 1997 200 545 217 874 524 982 919 30 106 32 404 5
531 -77 356 -266 591 -609 755 -301 144 -752 217 -1688 275 -895 55 -1187 112
-1407 274 -108 79 -172 178 -200 309 -71 334 178 609 697 771 531 165 1273
155 1811 -25 180 -61 309 -130 469 -254 61 -47 140 -76 227 -82 132 -10 242
25 335 106 67 59 90 113 96 226 l5 92 -89 77 c-369 320 -872 510 -1534 581
-141 15 -559 26 -690 19z"/>
<path d="M7650 7504 c-104 -28 -204 -107 -243 -192 l-22 -47 -3 -1175 c-3
-1187 1 -1389 33 -1560 106 -567 502 -1074 1118 -1435 639 -373 1506 -489
2312 -310 403 90 836 298 1165 561 47 38 141 125 210 194 292 292 462 598 542
976 l23 109 3 1317 3 1318 -22 50 c-53 123 -208 210 -374 210 -170 0 -320 -83
-378 -208 l-22 -47 -5 -1305 -5 -1305 -27 -96 c-71 -258 -185 -446 -395 -650
-310 -300 -670 -476 -1118 -545 -142 -22 -434 -29 -585 -15 -490 47 -914 235
-1249 556 -95 90 -203 225 -262 327 -52 89 -114 245 -141 355 -22 87 -22 98
-27 1388 l-6 1300 -25 49 c-42 83 -138 154 -245 182 -65 18 -185 17 -255 -2z"/>
<path d="M24820 7514 c-625 -37 -1149 -189 -1550 -452 -364 -239 -548 -531
-567 -902 -14 -267 51 -523 181 -718 53 -80 187 -212 273 -270 77 -52 216
-122 311 -156 288 -103 800 -175 1537 -216 903 -51 1267 -128 1471 -314 172
-156 212 -401 101 -609 -131 -247 -544 -445 -1091 -523 -174 -25 -652 -30
-846 -10 -388 41 -745 150 -970 296 -84 55 -188 160 -228 231 -40 70 -107 133
-175 164 -258 118 -577 -33 -577 -271 0 -54 6 -74 40 -140 229 -443 871 -780
1683 -884 702 -90 1460 -14 1997 200 545 217 874 524 982 919 30 106 32 404 5
531 -77 356 -266 591 -609 755 -301 144 -752 217 -1688 275 -895 55 -1187 112
-1407 274 -108 79 -172 178 -200 309 -71 334 178 609 697 771 531 165 1273
155 1811 -25 180 -61 309 -130 469 -254 61 -47 140 -76 227 -82 132 -10 242
25 335 106 67 59 90 113 96 226 l5 92 -89 77 c-369 320 -872 510 -1534 581
-141 15 -559 26 -690 19z"/>
<path d="M1600 1777 c-67 -16 -95 -30 -138 -71 -46 -43 -62 -77 -62 -131 0
-125 76 -182 313 -234 129 -28 187 -80 187 -168 0 -49 -29 -95 -80 -129 -32
-21 -56 -28 -114 -32 -91 -6 -161 10 -245 54 -36 19 -66 33 -67 31 -1 -1 -4
-18 -8 -37 -6 -35 -6 -35 51 -57 92 -36 143 -46 228 -47 100 -1 158 15 220 62
87 67 114 168 67 258 -42 82 -99 115 -255 150 -124 28 -189 60 -212 104 -35
69 -6 133 79 175 51 25 64 27 145 23 74 -3 99 -9 150 -34 61 -31 61 -31 61 -8
0 12 3 29 6 38 4 11 -10 19 -60 35 -86 26 -196 34 -266 18z"/>
<path d="M22980 1777 c-67 -16 -95 -30 -138 -71 -46 -43 -62 -77 -62 -131 0
-125 76 -182 313 -234 129 -28 187 -80 187 -168 0 -49 -29 -95 -80 -129 -32
-21 -56 -28 -114 -32 -91 -6 -161 10 -245 54 -36 19 -66 33 -67 31 -1 -1 -4
-18 -8 -37 -6 -35 -6 -35 51 -57 92 -36 143 -46 228 -47 100 -1 158 15 220 62
87 67 114 168 67 258 -42 82 -99 115 -255 150 -124 28 -189 60 -212 104 -35
69 -6 133 79 175 51 25 64 27 145 23 74 -3 99 -9 150 -34 61 -31 61 -31 61 -8
0 12 3 29 6 38 4 11 -10 19 -60 35 -86 26 -196 34 -266 18z"/>
<path d="M6553 1770 c-48 -11 -96 -43 -120 -80 -18 -26 -23 -47 -23 -101 l0
-69 -55 0 c-54 0 -55 0 -55 -30 0 -30 1 -30 55 -30 l55 0 0 -245 0 -245 35 0
35 0 0 245 0 245 80 0 80 0 0 30 0 30 -80 0 -80 0 0 75 c0 61 4 79 19 94 25
25 75 35 151 29 59 -4 60 -4 60 23 0 23 -5 27 -37 33 -46 7 -78 6 -120 -4z"/>
<path d="M3400 1735 c0 -34 1 -35 40 -35 39 0 40 1 40 35 0 34 -1 35 -40 35
-39 0 -40 -1 -40 -35z"/>
<path d="M7210 1473 c0 -292 1 -299 24 -348 29 -64 102 -128 169 -152 79 -27
182 -23 251 11 66 32 138 108 154 164 8 26 12 135 12 331 l0 291 -34 0 -35 0
-3 -302 c-3 -292 -4 -305 -25 -345 -40 -75 -113 -113 -212 -113 -99 1 -187 62
-210 147 -7 23 -11 156 -11 326 l0 287 -40 0 -40 0 0 -297z"/>
<path d="M9070 1611 l0 -160 -49 33 c-119 80 -258 39 -328 -98 -23 -43 -27
-64 -28 -136 0 -92 11 -130 57 -196 64 -90 178 -115 271 -61 27 16 51 35 54
43 10 27 23 13 23 -26 0 -39 1 -40 35 -40 l35 0 0 400 0 400 -35 0 -35 0 0
-159z m-60 -156 c55 -28 60 -46 60 -203 0 -158 -5 -175 -65 -212 -61 -37 -167
-19 -218 38 -69 76 -61 271 14 338 60 53 149 70 209 39z"/>
<path d="M12440 1611 l0 -160 -49 33 c-119 80 -258 39 -328 -98 -23 -43 -27
-64 -28 -136 0 -92 11 -130 57 -196 64 -90 178 -115 271 -61 27 16 51 35 54
43 10 27 23 13 23 -26 0 -39 1 -40 35 -40 l35 0 0 400 0 400 -35 0 -35 0 0
-159z m-60 -156 c55 -28 60 -46 60 -203 0 -158 -5 -175 -65 -212 -61 -37 -167
-19 -218 38 -69 76 -61 271 14 338 60 53 149 70 209 39z"/>
<path d="M25030 1611 l0 -160 -49 33 c-119 80 -258 39 -328 -98 -23 -43 -27
-64 -28 -136 0 -92 11 -130 57 -196 64 -90 178 -115 271 -61 27 16 51 35 54
43 10 27 23 13 23 -26 0 -39 1 -40 35 -40 l35 0 0 400 0 400 -35 0 -35 0 0
-159z m-60 -156 c55 -28 60 -46 60 -203 0 -158 -5 -175 -65 -212 -61 -37 -167
-19 -218 38 -69 76 -61 271 14 338 60 53 149 70 209 39z"/>
<path d="M4320 1595 l0 -75 -60 0 -60 0 0 -30 c0 -30 0 -30 59 -30 l60 0 3
-219 c3 -216 3 -220 27 -245 30 -32 72 -40 136 -26 82 17 123 39 118 61 -6 23
-10 23 -56 4 -53 -22 -110 -19 -133 6 -17 19 -19 41 -22 220 l-3 199 95 0 96
0 0 30 0 30 -95 0 -95 0 0 75 0 75 -35 0 -35 0 0 -75z"/>
<path d="M14030 1595 l0 -75 -60 0 -60 0 0 -30 c0 -30 0 -30 59 -30 l60 0 3
-219 c3 -216 3 -220 27 -245 30 -32 72 -40 136 -26 82 17 123 39 118 61 -6 23
-10 23 -56 4 -53 -22 -110 -19 -133 6 -17 19 -19 41 -22 220 l-3 199 95 0 96
0 0 30 0 30 -95 0 -95 0 0 75 0 75 -35 0 -35 0 0 -75z"/>
<path d="M23580 1595 l0 -75 -60 0 -60 0 0 -30 c0 -30 0 -30 59 -30 l60 0 3
-219 c3 -216 3 -220 27 -245 30 -32 72 -40 136 -26 82 17 123 39 118 61 -6 23
-10 23 -56 4 -53 -22 -110 -19 -133 6 -17 19 -19 41 -22 220 l-3 199 95 0 96
0 0 30 0 30 -95 0 -95 0 0 75 0 75 -35 0 -35 0 0 -75z"/>
<path d="M26590 1595 l0 -75 -60 0 -60 0 0 -30 c0 -30 0 -30 59 -30 l60 0 3
-219 c3 -216 3 -220 27 -245 30 -32 72 -40 136 -26 82 17 123 39 118 61 -6 23
-10 23 -56 4 -53 -22 -110 -19 -133 6 -17 19 -19 41 -22 220 l-3 199 95 0 96
0 0 30 0 30 -95 0 -95 0 0 75 0 75 -35 0 -35 0 0 -75z"/>
<path d="M2317 1520 c-80 -20 -150 -79 -188 -158 -30 -62 -31 -169 -2 -233 79
-176 312 -220 448 -84 55 56 75 106 75 195 0 90 -27 155 -86 212 -64 61 -163
88 -247 68z m164 -73 c86 -44 121 -168 84 -293 -41 -140 -231 -181 -332 -72
-65 70 -71 234 -12 319 47 67 175 90 260 46z"/>
<path d="M2967 1516 c-173 -48 -254 -287 -146 -435 96 -134 275 -156 427 -53
9 6 11 18 7 35 l-7 27 -25 -19 c-42 -34 -119 -54 -189 -49 -52 3 -70 9 -101
34 -58 46 -83 104 -83 189 0 84 21 137 73 182 20 18 53 35 73 39 57 11 156 -1
201 -24 l41 -21 7 26 c7 31 3 35 -53 56 -60 24 -167 30 -225 13z"/>
<path d="M3835 1521 c-49 -13 -90 -38 -123 -76 -51 -58 -65 -94 -70 -180 -5
-101 19 -164 85 -226 60 -55 104 -72 189 -73 60 0 80 4 137 32 60 30 67 36 67
63 0 34 -3 35 -40 9 -64 -46 -173 -64 -237 -39 -68 25 -132 119 -133 192 l0
37 205 0 205 0 0 33 c0 45 -23 119 -48 154 -39 56 -161 94 -237 74z m128 -65
c18 -7 42 -24 53 -37 19 -22 44 -78 44 -100 0 -5 -79 -9 -175 -9 l-175 0 15
37 c43 102 145 149 238 109z"/>
<path d="M5867 1520 c-80 -20 -150 -79 -188 -158 -30 -62 -31 -169 -2 -233 79
-176 312 -220 448 -84 55 56 75 106 75 195 0 90 -27 155 -86 212 -64 61 -163
88 -247 68z m164 -73 c86 -44 121 -168 84 -293 -41 -140 -231 -181 -332 -72
-65 70 -71 234 -12 319 47 67 175 90 260 46z"/>
<path d="M8265 1521 c-44 -11 -83 -39 -111 -80 l-24 -36 0 58 0 57 -40 0 -40
0 0 -275 0 -275 39 0 39 0 4 198 c3 219 10 245 71 282 67 41 184 15 207 -46 6
-14 10 -117 10 -230 l0 -204 35 0 35 0 0 223 c0 247 -6 275 -65 309 -36 20
-118 30 -160 19z"/>
<path d="M9495 1521 c-49 -13 -90 -38 -123 -76 -51 -58 -65 -94 -70 -180 -5
-101 19 -164 85 -226 60 -55 104 -72 189 -73 60 0 80 4 137 32 60 30 67 36 67
63 0 34 -3 35 -40 9 -64 -46 -173 -64 -237 -39 -68 25 -132 119 -133 192 l0
37 205 0 205 0 0 33 c0 45 -23 119 -48 154 -39 56 -161 94 -237 74z m128 -65
c18 -7 42 -24 53 -37 19 -22 44 -78 44 -100 0 -5 -79 -9 -175 -9 l-175 0 15
37 c43 102 145 149 238 109z"/>
<path d="M10178 1516 c-60 -16 -121 -57 -144 -96 -10 -16 -22 -30 -26 -30 -4
0 -8 29 -8 65 l0 65 -35 0 -35 0 0 -275 0 -275 40 0 40 0 0 165 c0 176 8 215
53 263 29 32 86 60 136 68 37 6 41 9 41 35 0 33 2 32 -62 15z"/>
<path d="M10524 1520 c-49 -11 -100 -47 -134 -93 -130 -177 -30 -430 170 -431
67 0 109 22 148 78 l27 39 3 -87 c3 -103 -13 -147 -68 -184 -31 -21 -43 -23
-115 -19 -70 4 -110 13 -177 42 -15 6 -18 2 -18 -23 0 -28 4 -31 68 -50 151
-47 255 -36 324 35 61 63 62 68 66 401 l4 302 -41 0 -41 0 0 -50 0 -51 -37 39
c-51 53 -107 70 -179 52z m164 -75 c45 -38 55 -73 50 -177 -7 -162 -55 -226
-159 -216 -56 6 -105 36 -139 86 -32 45 -39 136 -16 196 44 114 188 175 264
111z"/>
<path d="M11258 1516 c-60 -16 -121 -57 -144 -96 -10 -16 -22 -30 -26 -30 -4
0 -8 29 -8 65 l0 65 -35 0 -35 0 0 -275 0 -275 40 0 40 0 0 165 c0 176 8 215
53 263 29 32 86 60 136 68 37 6 41 9 41 35 0 33 2 32 -62 15z"/>
<path d="M11600 1524 c-14 -2 -51 -12 -82 -21 -54 -15 -58 -18 -58 -46 0 -24
3 -28 18 -22 195 85 312 44 312 -110 0 -25 -3 -45 -7 -45 -54 -1 -195 -25
-237 -41 -59 -21 -111 -71 -122 -115 -9 -35 23 -111 57 -136 14 -11 44 -22 65
-25 57 -7 162 22 207 58 l37 30 0 -41 c0 -39 1 -40 35 -40 l35 0 0 211 c0 200
-1 213 -22 251 -13 22 -41 51 -63 64 -40 23 -124 37 -175 28z m190 -346 c0
-107 -37 -147 -142 -155 -67 -6 -109 7 -138 42 -18 22 -15 73 7 97 38 43 133
76 221 77 l52 1 0 -62z"/>
<path d="M13510 1524 c-14 -2 -51 -12 -82 -21 -54 -15 -58 -18 -58 -46 0 -24
3 -28 18 -22 195 85 312 44 312 -110 0 -25 -3 -45 -7 -45 -54 -1 -195 -25
-237 -41 -59 -21 -111 -71 -122 -115 -9 -35 23 -111 57 -136 14 -11 44 -22 65
-25 57 -7 162 22 207 58 l37 30 0 -41 c0 -39 1 -40 35 -40 l35 0 0 211 c0 200
-1 213 -22 251 -13 22 -41 51 -63 64 -40 23 -124 37 -175 28z m190 -346 c0
-107 -37 -147 -142 -155 -67 -6 -109 7 -138 42 -18 22 -15 73 7 97 38 43 133
76 221 77 l52 1 0 -62z"/>
<path d="M14615 1521 c-49 -13 -90 -38 -123 -76 -51 -58 -65 -94 -70 -180 -5
-101 19 -164 85 -226 60 -55 104 -72 189 -73 60 0 80 4 137 32 60 30 67 36 67
63 0 34 -3 35 -40 9 -64 -46 -173 -64 -237 -39 -68 25 -132 119 -133 192 l0
37 205 0 205 0 0 33 c0 45 -23 119 -48 154 -39 56 -161 94 -237 74z m128 -65
c18 -7 42 -24 53 -37 19 -22 44 -78 44 -100 0 -5 -79 -9 -175 -9 l-175 0 15
37 c43 102 145 149 238 109z"/>
<path d="M25455 1521 c-49 -13 -90 -38 -123 -76 -51 -58 -65 -94 -70 -180 -5
-101 19 -164 85 -226 60 -55 104 -72 189 -73 60 0 80 4 137 32 60 30 67 36 67
63 0 34 -3 35 -40 9 -64 -46 -173 -64 -237 -39 -68 25 -132 119 -133 192 l0
37 205 0 205 0 0 33 c0 45 -23 119 -48 154 -39 56 -161 94 -237 74z m128 -65
c18 -7 42 -24 53 -37 19 -22 44 -78 44 -100 0 -5 -79 -9 -175 -9 l-175 0 15
37 c43 102 145 149 238 109z"/>
<path d="M26105 1521 c-44 -11 -83 -39 -111 -80 l-24 -36 0 58 0 57 -40 0 -40
0 0 -275 0 -275 39 0 39 0 4 198 c3 219 10 245 71 282 67 41 184 15 207 -46 6
-14 10 -117 10 -230 l0 -204 35 0 35 0 0 223 c0 247 -6 275 -65 309 -36 20
-118 30 -160 19z"/>
<path d="M27101 1520 c-83 -18 -131 -71 -131 -147 0 -79 69 -130 205 -153 84
-15 130 -40 144 -81 23 -67 -36 -119 -137 -119 -63 0 -186 32 -198 52 -8 13
-22 -14 -23 -44 -1 -28 118 -62 219 -62 138 0 210 52 210 153 0 91 -65 146
-205 171 -83 15 -119 32 -141 65 -14 21 -14 30 -4 56 7 16 25 36 41 44 40 21
152 18 219 -5 30 -10 56 -18 57 -17 1 1 4 14 8 28 6 25 3 28 -42 43 -62 20
-166 27 -222 16z"/>
<path d="M3400 1245 l0 -275 40 0 40 0 0 275 0 275 -40 0 -40 0 0 -275z"/>
<path d="M4638 1503 c27 -53 232 -522 232 -532 0 -25 -51 -111 -75 -127 -20
-13 -40 -16 -91 -11 -55 4 -64 2 -60 -10 3 -8 6 -21 6 -28 0 -9 18 -16 53 -20
73 -9 123 10 162 60 24 33 295 655 295 679 0 3 -15 6 -34 6 -34 0 -34 -1 -81
-112 -26 -62 -69 -168 -95 -236 l-47 -123 -23 63 c-12 35 -56 141 -98 236
l-75 172 -39 0 c-34 0 -38 -2 -30 -17z"/>
<path d="M12722 1288 c3 -213 5 -236 24 -268 14 -24 33 -39 60 -48 72 -25 196
7 257 65 l27 27 0 -47 0 -47 35 0 35 0 0 275 0 275 -35 0 -35 0 0 -195 c0
-225 -7 -253 -78 -293 -58 -32 -154 -31 -187 3 l-25 24 0 231 0 230 -41 0 -41
0 4 -232z"/>
<path d="M24012 1288 c3 -213 5 -236 24 -268 14 -24 33 -39 60 -48 72 -25 196
7 257 65 l27 27 0 -47 0 -47 35 0 35 0 0 275 0 275 -35 0 -35 0 0 -195 c0
-225 -7 -253 -78 -293 -58 -32 -154 -31 -187 3 l-25 24 0 231 0 230 -41 0 -41
0 4 -232z"/>
</g>
</svg>
