<svg xmlns="http://www.w3.org/2000/svg" viewBox="0 0 48 48"><defs><style>.cls-1{fill:#201602}</style></defs><g id="Layer_2" data-name="Layer 2"><g id="layer_1-2" data-name="layer 1"><path class="cls-1" d="M47 48H29a1 1 0 0 1-1-1v-4.81a5.84 5.84 0 0 1-3 .81 6 6 0 0 1 0-12 5.84 5.84 0 0 1 3 .81V25a1 1 0 0 1 1-1h3.81a5.87 5.87 0 0 1-.81-3 6 6 0 0 1 12 0 5.87 5.87 0 0 1-.81 3H47a1 1 0 0 1 1 1v9a1 1 0 0 1-1.8.6A4 4 0 0 0 43 33a4 4 0 1 0 3.2 6.38A1 1 0 0 1 48 40v7a1 1 0 0 1-1 1zm-17-2h16v-3.81a5.87 5.87 0 0 1-3 .81 6 6 0 0 1 0-12 5.87 5.87 0 0 1 3 .81V26h-5a1 1 0 0 1-.59-1.8 4 4 0 1 0-4.75 0A1 1 0 0 1 35 26h-5v8a1 1 0 0 1-.68.95 1 1 0 0 1-1.12-.35A3.94 3.94 0 0 0 25 33a4 4 0 0 0 0 8 4 4 0 0 0 3.2-1.62 1 1 0 0 1 1.12-.38 1 1 0 0 1 .68 1zM10 12c-2.76 0-5-2.69-5-6s2.24-6 5-6 5 2.69 5 6-2.24 6-5 6zm0-10C8.35 2 7 3.79 7 6s1.35 4 3 4 3-1.79 3-4-1.35-4-3-4zM2 46h16v2H2z"/><path class="cls-1" d="M4 16h2v31H4zM9 31h2v16H9z"/><path class="cls-1" d="M16 47h-2V16a1 1 0 0 1 .45-.83 1 1 0 0 1 .93-.09l9.24 3.84A1 1 0 0 0 26 18a.55.55 0 0 0-.32-.5L18 14a19.12 19.12 0 0 0-4.74-1.45L10 12l-5.3.59a3 3 0 0 0-2.67 3V27a1 1 0 0 0 1 1H4V16h2v13a1 1 0 0 1-1 1H3a3 3 0 0 1-3-3V15.58a5 5 0 0 1 4.45-5L9.89 10h.27l3.41.57a20.9 20.9 0 0 1 5.24 1.6l7.7 3.5A2.56 2.56 0 0 1 28 18a3 3 0 0 1-4.15 2.77L16 17.5z"/><path class="cls-1" d="M5 26h10v2H5z"/><path class="cls-1" d="M9 11h2v16H9z"/></g></g></svg>